<svg xmlns="http://www.w3.org/2000/svg" width="144" height="144" viewBox="0 0 144 144">
  <rect width="144" height="144" fill="#22c55e" rx="28"/>
  <path d="M72 28c-6 0-12 4-14 10-8-4-18 0-20 8s2 16 10 18c-4 8-2 18 6 22s18-2 22-10c6 6 16 6 22 0s6-16 0-22c8-4 10-14 6-22s-14-10-22-6c-2-6-8-10-14-10z" 
        fill="white" transform="translate(20, 28) scale(1.2)"/>
  <text x="72" y="118" font-family="Arial, sans-serif" font-size="16" font-weight="bold" fill="white" text-anchor="middle">Pureingo</text>
</svg>
